<svg xmlns="http://www.w3.org/2000/svg" style="display: none">
  <symbol id="icon-book" viewBox="0 0 24 24">
    <g fill="none" stroke="currentColor" stroke-width="1.8" stroke-linecap="round" stroke-linejoin="round">
      <path d="M4.5 6.25c0-1.5 1.2-2.75 2.75-2.75H11c1.38 0 2.5 1.12 2.5 2.5V21c0-1.25-1.02-2.25-2.27-2.25H7.25c-1.52 0-2.75 1.23-2.75 2.75Z" />
      <path d="M19.5 3.5h-4.75c-1.38 0-2.5 1.12-2.5 2.5V21c0-1.25 1.02-2.25 2.27-2.25h3.48c1.52 0 2.75 1.23 2.75 2.75V5.75c0-1.24-1.01-2.25-2.25-2.25Z" />
      <path d="M11.75 6.5H16" />
    </g>
  </symbol>

  <symbol id="icon-search" viewBox="0 0 24 24">
    <g fill="none" stroke="currentColor" stroke-width="1.8" stroke-linecap="round" stroke-linejoin="round">
      <circle cx="11" cy="11" r="6" />
      <path d="M15.5 15.5 20 20" />
    </g>
  </symbol>

  <symbol id="icon-gear" viewBox="0 0 24 24">
    <g fill="none" stroke="currentColor" stroke-width="1.8" stroke-linecap="round" stroke-linejoin="round">
      <circle cx="12" cy="12" r="3.25" />
      <path d="M12 3v2.5" />
      <path d="M12 18.5V21" />
      <path d="M4.22 5.22 5.99 6.99" />
      <path d="M18.01 17.99 19.78 19.76" />
      <path d="M3 12h2.5" />
      <path d="M18.5 12H21" />
      <path d="M4.22 18.78 5.99 17.01" />
      <path d="M18.01 6.01 19.78 4.24" />
    </g>
  </symbol>

  <symbol id="icon-star" viewBox="0 0 24 24">
    <path
      fill="none"
      stroke="currentColor"
      stroke-width="1.8"
      stroke-linejoin="round"
      d="m12 4 2.35 4.77 5.27.77-3.81 3.71.9 5.25L12 16.96 7.29 18.5l.9-5.25-3.81-3.71 5.27-.77Z"
    />
  </symbol>

  <symbol id="icon-star-solid" viewBox="0 0 24 24">
    <path
      fill="currentColor"
      d="M12 2.75 14.74 8l5.76.84-4.17 4.04.98 5.72L12 15.92 6.69 18.6l.98-5.72L3.5 8.84 9.26 8Z"
    />
  </symbol>

  <symbol id="icon-heart" viewBox="0 0 24 24">
    <path
      fill="currentColor"
      d="M12 20.25a1 1 0 0 1-.64-.23C7.2 16.32 4.5 13.92 4.5 10.59c0-2.22 1.7-3.97 3.86-3.97 1.34 0 2.55.65 3.64 1.94 1.09-1.29 2.3-1.94 3.64-1.94 2.16 0 3.86 1.75 3.86 3.97 0 3.33-2.7 5.73-6.86 9.43a1 1 0 0 1-.64.23Z"
    />
  </symbol>

  <symbol id="icon-clock" viewBox="0 0 24 24">
    <g fill="none" stroke="currentColor" stroke-width="1.8" stroke-linecap="round" stroke-linejoin="round">
      <circle cx="12" cy="12" r="8" />
      <path d="M12 8v4l2.5 1.5" />
    </g>
  </symbol>

  <symbol id="icon-wand" viewBox="0 0 24 24">
    <g fill="none" stroke="currentColor" stroke-width="1.8" stroke-linecap="round" stroke-linejoin="round">
      <path d="M4 20 16.5 7.5" />
      <path d="m13 4 1 2 2 1-2 1-1 2-1-2-2-1 2-1Z" />
      <path d="m18.5 9 0 .01" />
      <path d="m19.5 4 0 .01" />
    </g>
  </symbol>

  <symbol id="icon-pencil" viewBox="0 0 24 24">
    <g fill="none" stroke="currentColor" stroke-width="1.8" stroke-linecap="round" stroke-linejoin="round">
      <path d="M4 20 5.5 14.5 15.5 4.5 19.5 8.5 9.5 18.5Z" />
      <path d="M14.5 5.5 18.5 9.5" />
      <path d="M4 20h4" />
    </g>
  </symbol>

  <symbol id="icon-robot" viewBox="0 0 24 24">
    <g fill="none" stroke="currentColor" stroke-width="1.8" stroke-linecap="round" stroke-linejoin="round">
      <rect x="5" y="6.5" width="14" height="11" rx="3" />
      <path d="M9 3v2.5" />
      <path d="M15 3v2.5" />
      <circle cx="10" cy="12" r="1" />
      <circle cx="14" cy="12" r="1" />
      <path d="M9.5 15h5" />
    </g>
  </symbol>

  <symbol id="icon-spinner" viewBox="0 0 24 24">
    <g fill="none" stroke="currentColor" stroke-width="2" stroke-linecap="round">
      <path d="M12 3a9 9 0 0 1 9 9" opacity="0.25" />
      <path d="M21 12a9 9 0 0 1-9 9" opacity="0.25" />
      <path d="M12 21a9 9 0 0 1-9-9" opacity="0.25" />
      <path d="M12 3a9 9 0 0 0-9 9" />
    </g>
  </symbol>

  <symbol id="icon-close" viewBox="0 0 24 24">
    <g fill="none" stroke="currentColor" stroke-width="1.8" stroke-linecap="round">
      <path d="M6 6 18 18" />
      <path d="M6 18 18 6" />
    </g>
  </symbol>
</svg>
